<?xml version="1.0" encoding="utf-8"?>
<!-- Generator: Adobe Illustrator 21.1.0, SVG Export Plug-In . SVG Version: 6.00 Build 0)  -->
<svg version="1.1" id="Capa_1" xmlns="http://www.w3.org/2000/svg" xmlns:xlink="http://www.w3.org/1999/xlink" x="0px" y="0px"
	 viewBox="0 0 107.5 40.2" style="enable-background:new 0 0 107.5 40.2;" xml:space="preserve">
<style type="text/css">
	.st0{fill:#011953;}
	.st1{fill:#EFD911;}
	.st2{fill:#BF0D34;}
</style>
<g>
	<path class="st0" d="M14.9,11.8h4.6l7.3,9.4v-9.4h4.9v17.8h-4.3l-7.6-9.8v9.8h-4.9C14.9,29.6,14.9,11.8,14.9,11.8z"/>
	<path class="st0" d="M35,11.8h5v17.8h-5V11.8z"/>
	<path class="st0" d="M48.1,20.6l-5.9-8.8h5.7l3.2,5l3.2-5h5.6L54,20.5l6.1,9.1h-5.7L51,24.3l-3.4,5.4H42L48.1,20.6z"/>
	<path class="st0" d="M60,20.8L60,20.8c0-5.2,4.1-9.3,9.6-9.3s9.6,4.1,9.6,9.2v0.1c0,5.1-4.1,9.3-9.6,9.3S60,25.9,60,20.8z
		 M74.1,20.8L74.1,20.8c0-2.6-1.9-4.9-4.6-4.9S65,18.1,65,20.7v0.1c0,2.6,1.9,4.8,4.6,4.8C72.3,25.5,74.1,23.3,74.1,20.8z"/>
	<path class="st0" d="M81.7,11.8h4.6l7.3,9.4v-9.4h4.9v17.8h-4.3l-7.6-9.8v9.8h-4.9V11.8z"/>
</g>
<polygon class="st1" points="68.3,0.9 69.4,3.9 72.6,4 70.1,6 71,9 68.3,7.3 65.7,9 66.5,6 64.1,4 67.2,3.9 "/>
<polygon class="st1" points="81.1,0.9 82.2,3.9 85.4,4 82.9,6 83.7,9 81.1,7.3 78.4,9 79.3,6 76.8,4 80,3.9 "/>
<polygon class="st1" points="93.6,0.9 94.7,3.9 97.9,4 95.4,6 96.2,9 93.6,7.3 90.9,9 91.8,6 89.3,4 92.5,3.9 "/>
<rect x="0.8" y="31.1" class="st2" width="97.8" height="2.2"/>
<g>
	<path class="st0" d="M14.6,38.4L15,38c0.3,0.3,0.6,0.4,1.1,0.4c0.4,0,0.6-0.2,0.6-0.4l0,0c0-0.2-0.1-0.4-0.8-0.5
		c-0.7-0.2-1.1-0.4-1.1-1l0,0c0-0.6,0.5-1,1.1-1c0.5,0,0.9,0.1,1.2,0.4l-0.3,0.4c-0.3-0.2-0.6-0.3-0.9-0.3c-0.3,0-0.5,0.2-0.5,0.4
		l0,0c0,0.3,0.2,0.4,0.8,0.5c0.7,0.2,1.1,0.4,1.1,1l0,0c0,0.6-0.5,1-1.2,1C15.5,38.9,15,38.7,14.6,38.4z"/>
	<path class="st0" d="M18.8,35.5h0.6v3.4h-0.6V35.5z"/>
	<path class="st0" d="M20.9,38.4l0.4-0.4c0.3,0.3,0.6,0.4,1.1,0.4c0.4,0,0.6-0.2,0.6-0.4l0,0c0-0.2-0.1-0.4-0.8-0.5
		c-0.7-0.2-1.1-0.4-1.1-1l0,0c0-0.6,0.5-1,1.1-1c0.5,0,0.9,0.1,1.2,0.4L23,36.3c-0.3-0.2-0.6-0.3-0.9-0.3s-0.5,0.2-0.5,0.4l0,0
		c0,0.3,0.2,0.4,0.8,0.5c0.7,0.2,1.1,0.4,1.1,1l0,0c0,0.6-0.5,1-1.2,1C21.7,38.9,21.3,38.7,20.9,38.4z"/>
	<path class="st0" d="M25.7,36.1h-1.1v-0.5h2.7v0.5h-1.1v2.8h-0.6v-2.8H25.7z"/>
	<path class="st0" d="M28.8,35.5h2.5V36h-1.9v0.9h1.7v0.5h-1.7v0.9h1.9v0.5h-2.5V35.5z"/>
	<path class="st0" d="M32.9,35.5h0.6l1,1.6l1-1.6h0.6v3.4h-0.6v-2.4l-1,1.5l0,0l-1.1-1.6v2.4h-0.6L32.9,35.5L32.9,35.5z"/>
	<path class="st0" d="M39.1,35.5h0.5l1.5,3.4h-0.6l-0.3-0.8h-1.6l-0.3,0.8h-0.6L39.1,35.5z M39.9,37.5l-0.6-1.3l-0.6,1.3H39.9z"/>
	<path class="st0" d="M42.2,38.4l0.4-0.4c0.3,0.3,0.6,0.4,1.1,0.4c0.4,0,0.6-0.2,0.6-0.4l0,0c0-0.2-0.1-0.4-0.8-0.5
		c-0.7-0.2-1.1-0.4-1.1-1l0,0c0-0.6,0.5-1,1.1-1c0.5,0,0.9,0.1,1.2,0.4l-0.3,0.4c-0.3-0.2-0.6-0.3-0.9-0.3c-0.3,0-0.5,0.2-0.5,0.4
		l0,0c0,0.3,0.2,0.4,0.8,0.5c0.7,0.2,1.1,0.4,1.1,1l0,0c0,0.6-0.5,1-1.2,1C43.1,38.9,42.6,38.7,42.2,38.4z"/>
	<path class="st0" d="M50.9,35.5h2.5V36h-1.9v0.9h1.7v0.5h-1.7v0.9h1.9v0.5h-2.5V35.5z"/>
	<path class="st0" d="M54.9,35.5h0.6v2.8h1.8v0.5h-2.4C54.9,38.8,54.9,35.5,54.9,35.5z"/>
	<path class="st0" d="M58.7,35.5h2.5V36h-1.9v0.9H61v0.5h-1.7v0.9h1.9v0.5h-2.5V35.5z"/>
	<path class="st0" d="M62.6,37.2L62.6,37.2c0-1,0.7-1.7,1.7-1.7c0.6,0,1,0.2,1.3,0.5l-0.4,0.4C65,36.2,64.7,36,64.3,36
		c-0.6,0-1.1,0.5-1.1,1.2l0,0c0,0.7,0.5,1.2,1.1,1.2c0.4,0,0.7-0.2,1-0.4l0.4,0.4C65.3,38.8,65,39,64.3,39
		C63.3,38.9,62.6,38.2,62.6,37.2z"/>
	<path class="st0" d="M67.9,36.1h-1.1v-0.5h2.7v0.5h-1.1v2.8h-0.6L67.9,36.1L67.9,36.1z"/>
	<path class="st0" d="M71.1,35.5h1.5c0.4,0,0.8,0.1,1,0.3s0.3,0.4,0.3,0.7l0,0c0,0.6-0.3,0.9-0.8,1l0.9,1.3h-0.7l-0.8-1.2h-0.7v1.2
		h-0.6v-3.3H71.1z M72.5,37.2c0.4,0,0.7-0.2,0.7-0.6l0,0c0-0.4-0.3-0.6-0.7-0.6h-0.9v1.1L72.5,37.2L72.5,37.2z"/>
	<path class="st0" d="M75.2,37.2L75.2,37.2c0-1,0.7-1.7,1.8-1.7c1,0,1.8,0.8,1.8,1.7l0,0c0,0.9-0.7,1.7-1.8,1.7
		C75.9,38.9,75.2,38.1,75.2,37.2z M78.1,37.2L78.1,37.2c0-0.7-0.5-1.2-1.1-1.2c-0.7,0-1.1,0.5-1.1,1.2l0,0c0,0.7,0.5,1.2,1.1,1.2
		S78.1,37.9,78.1,37.2z M77.3,34.5l0.5,0.2l-0.6,0.5h-0.5L77.3,34.5z"/>
	<path class="st0" d="M80.3,35.5h0.5l1.8,2.3v-2.3h0.6v3.4h-0.5l-1.9-2.4v2.4h-0.6L80.3,35.5L80.3,35.5z"/>
	<path class="st0" d="M84.9,35.5h0.6v3.4h-0.6V35.5z"/>
	<path class="st0" d="M87.1,37.2L87.1,37.2c0-1,0.7-1.7,1.7-1.7c0.6,0,1,0.2,1.3,0.5l-0.4,0.4c-0.3-0.2-0.6-0.4-0.9-0.4
		c-0.6,0-1.1,0.5-1.1,1.2l0,0c0,0.7,0.5,1.2,1.1,1.2c0.4,0,0.7-0.2,1-0.4l0.4,0.4c-0.4,0.4-0.7,0.6-1.4,0.6
		C87.8,38.9,87.1,38.2,87.1,37.2z"/>
	<path class="st0" d="M91.3,37.2L91.3,37.2c0-1,0.7-1.7,1.8-1.7c1,0,1.8,0.8,1.8,1.7l0,0c0,0.9-0.7,1.7-1.8,1.7
		C92.1,38.9,91.3,38.1,91.3,37.2z M94.2,37.2L94.2,37.2c0-0.7-0.5-1.2-1.1-1.2c-0.7,0-1.1,0.5-1.1,1.2l0,0c0,0.7,0.5,1.2,1.1,1.2
		C93.8,38.4,94.2,37.9,94.2,37.2z"/>
	<path class="st0" d="M96.2,38.4l0.4-0.4c0.3,0.3,0.6,0.4,1.1,0.4c0.4,0,0.6-0.2,0.6-0.4l0,0c0-0.2-0.1-0.4-0.8-0.5
		c-0.7-0.2-1.1-0.4-1.1-1l0,0c0-0.6,0.5-1,1.1-1c0.5,0,0.9,0.1,1.2,0.4l-0.3,0.4c-0.4-0.2-0.7-0.3-1-0.3c-0.3,0-0.5,0.2-0.5,0.4l0,0
		c0,0.3,0.2,0.4,0.8,0.5c0.7,0.2,1.1,0.4,1.1,1l0,0c0,0.6-0.5,1-1.2,1C97,38.9,96.6,38.7,96.2,38.4z"/>
</g>
<rect x="0.8" y="26.6" class="st0" width="18.6" height="3.1"/>
<rect x="93.7" y="11.8" class="st0" width="12.6" height="3.1"/>
</svg>
